<svg xmlns="http://www.w3.org/2000/svg" version="1.1" xmlns:xlink="http://www.w3.org/1999/xlink" xmlns:svgjs="http://svgjs.dev/svgjs" width="1000" height="1000" viewBox="0 0 1000 1000"><rect width="1000" height="1000" fill="#f6f6f6"></rect><g transform="matrix(0.7,0,0,0.7,150,281.25)"><svg viewBox="0 0 512 320" data-background-color="#f6f6f6" preserveAspectRatio="xMidYMid meet" height="625" width="1000" xmlns="http://www.w3.org/2000/svg" xmlns:xlink="http://www.w3.org/1999/xlink"><g id="tight-bounds" transform="matrix(1,0,0,1,0,0)"><svg viewBox="0 0 512 320" height="320" width="512"><g><svg></svg></g><g><svg viewBox="0 0 512 320" height="320" width="512"><g><path transform="translate(256,160) scale(160,160)" d="M-1 0c0-0.552 0.448-1 1-1 0.552 0 1 0.448 1 1 0 0.552-0.448 1-1 1-0.552 0-1-0.448-1-1z" fill="#6d1d20" fill-rule="nonzero" stroke="none" stroke-width="1" stroke-linecap="butt" stroke-linejoin="miter" stroke-miterlimit="10" stroke-dasharray="" stroke-dashoffset="0" font-family="none" font-weight="none" font-size="none" text-anchor="none" style="mix-blend-mode: normal" data-fill-palette-color="tertiary"></path></g><g transform="matrix(1,0,0,1,171.66840807756057,80)"><svg viewBox="0 0 168.6631838448789 160" height="160" width="168.6631838448789"><g><svg viewBox="0 0 168.6631838448789 160" height="160" width="168.6631838448789"><g><svg viewBox="0 0 204.8 194.28069157129772" height="160" width="168.6631838448789"><g transform="matrix(1,0,0,1,0,120.07326154585242)"><svg viewBox="0 0 204.8 74.20743002544529" height="74.20743002544529" width="204.8"><g id="textblocktransform"><svg viewBox="0 0 204.8 74.20743002544529" height="74.20743002544529" width="204.8" id="textblock"><g><svg viewBox="0 0 204.8 74.20743002544529" height="74.20743002544529" width="204.8"><g transform="matrix(1,0,0,1,0,0)"><svg width="204.8" viewBox="2.9 -35 98.25 35.6" height="74.20743002544529" data-palette-color="#fbfbfb"><path d="M17.8 0.6L17.8 0.6Q13.45 0.6 10.08-1.15 6.7-2.9 4.8-6.15 2.9-9.4 2.9-13.9L2.9-13.9 2.9-35 11.2-35 11.2-13.45Q11.2-11.5 12-9.93 12.8-8.35 14.3-7.43 15.8-6.5 17.8-6.5L17.8-6.5Q19.85-6.5 21.3-7.43 22.75-8.35 23.58-9.93 24.4-11.5 24.4-13.45L24.4-13.45 24.4-35 32.7-35 32.7-13.9Q32.7-9.4 30.78-6.15 28.85-2.9 25.5-1.15 22.15 0.6 17.8 0.6ZM53.4 0.6L53.4 0.6Q50.95 0.6 49-0.53 47.05-1.65 46.2-4.05L46.2-4.05 35.55-35 44.6-35 52.7-7.9Q52.8-7.6 52.97-7.45 53.15-7.3 53.4-7.3L53.4-7.3Q53.65-7.3 53.82-7.45 54-7.6 54.1-7.9L54.1-7.9 62.35-35 71.2-35 60.6-4.05Q59.75-1.7 57.8-0.55 55.85 0.6 53.4 0.6ZM90.6 0L74.45 0 74.45-7 89.4-7Q90.4-7 91.2-7.5 92-8 92.47-8.8 92.95-9.6 92.95-10.55L92.95-10.55Q92.95-11.55 92.47-12.35 92-13.15 91.2-13.65 90.4-14.15 89.4-14.15L89.4-14.15 84-14.15Q80.95-14.15 78.45-15.35 75.95-16.55 74.47-18.88 73-21.2 73-24.45L73-24.45Q73-27.65 74.4-30 75.8-32.35 78.2-33.68 80.6-35 83.5-35L83.5-35 98.95-35 98.95-28 84.45-28Q83.55-28 82.8-27.55 82.05-27.1 81.65-26.35 81.25-25.6 81.25-24.7L81.25-24.7Q81.25-23.8 81.65-23.08 82.05-22.35 82.8-21.9 83.55-21.45 84.45-21.45L84.45-21.45 90.1-21.45Q93.45-21.45 95.92-20.18 98.4-18.9 99.77-16.63 101.15-14.35 101.15-11.3L101.15-11.3Q101.15-7.7 99.72-5.18 98.3-2.65 95.9-1.33 93.5 0 90.6 0L90.6 0Z" opacity="1" transform="matrix(1,0,0,1,0,0)" fill="#fbfbfb" class="undefined-text-0" data-fill-palette-color="quaternary" id="text-0"></path></svg></g></svg></g></svg></g></svg></g><g transform="matrix(1,0,0,1,51.122665852417306,0)"><svg viewBox="0 0 102.5546682951654 102.5546682951654" height="102.5546682951654" width="102.5546682951654"><g><svg xmlns="http://www.w3.org/2000/svg" data-name="Layer 1" viewBox="1.4999962876128305 1.4999962876128305 96.95002060790029 96.95002060790029" x="0" y="0" height="102.5546682951654" width="102.5546682951654" class="icon-icon-0" data-fill-palette-color="quaternary" id="icon-0"><path d="M92 39.39l-5.36-0.94a38.21 38.21 0 0 0-2.59-6.23l3.13-4.46a7.79 7.79 0 0 0-0.87-10l-4.13-4.13a7.79 7.79 0 0 0-10-0.87l-4.46 3.13a38.25 38.25 0 0 0-6.23-2.58L60.61 8A7.79 7.79 0 0 0 52.92 1.5H47.08A7.79 7.79 0 0 0 39.39 8l-0.94 5.36a38.18 38.18 0 0 0-6.23 2.58l-4.46-3.13a7.79 7.79 0 0 0-10 0.87l-4.13 4.13a7.79 7.79 0 0 0-0.87 10l3.13 4.46a38.25 38.25 0 0 0-2.58 6.23L8 39.39A7.79 7.79 0 0 0 1.5 47.08v5.85A7.79 7.79 0 0 0 8 60.61l5.36 0.94a38.26 38.26 0 0 0 2.58 6.23l-3.13 4.46a7.79 7.79 0 0 0 0.87 10l4.14 4.14a7.79 7.79 0 0 0 10 0.87l4.46-3.13a38.27 38.27 0 0 0 6.23 2.58L39.39 92a7.79 7.79 0 0 0 7.68 6.45h5.85A7.79 7.79 0 0 0 60.61 92l0.94-5.36a38.25 38.25 0 0 0 6.23-2.58l4.46 3.13a7.79 7.79 0 0 0 10-0.87l4.13-4.13a7.79 7.79 0 0 0 0.87-10l-3.13-4.46a38.29 38.29 0 0 0 2.59-6.23L92 60.61a7.79 7.79 0 0 0 6.45-7.68V47.08A7.79 7.79 0 0 0 92 39.39ZM93.5 52.92a2.8 2.8 0 0 1-2.32 2.76L84.3 56.89a2.5 2.5 0 0 0-2 1.81 33.26 33.26 0 0 1-3.31 8 2.5 2.5 0 0 0 0.12 2.68l4 5.73a2.8 2.8 0 0 1-0.31 3.59l-4.13 4.13a2.79 2.79 0 0 1-3.59 0.31l-5.73-4A2.5 2.5 0 0 0 66.69 79a33.27 33.27 0 0 1-8 3.31 2.5 2.5 0 0 0-1.81 2l-1.21 6.89a2.8 2.8 0 0 1-2.76 2.32H47.08a2.8 2.8 0 0 1-2.76-2.32l-1.21-6.89a2.5 2.5 0 0 0-1.81-2 33.24 33.24 0 0 1-8-3.31 2.5 2.5 0 0 0-2.69 0.12l-5.73 4a2.8 2.8 0 0 1-3.59-0.31l-4.13-4.13a2.8 2.8 0 0 1-0.31-3.59l4-5.73A2.5 2.5 0 0 0 21 66.69a33.25 33.25 0 0 1-3.31-8 2.5 2.5 0 0 0-2-1.81L8.82 55.68A2.8 2.8 0 0 1 6.5 52.92V47.08a2.8 2.8 0 0 1 2.32-2.76l6.89-1.21a2.5 2.5 0 0 0 2-1.81 33.3 33.3 0 0 1 3.31-8 2.5 2.5 0 0 0-0.12-2.68l-4-5.73a2.8 2.8 0 0 1 0.31-3.59l4.13-4.13a2.8 2.8 0 0 1 3.59-0.31l5.73 4a2.5 2.5 0 0 0 2.68 0.12 33.23 33.23 0 0 1 8-3.31 2.5 2.5 0 0 0 1.81-2l1.21-6.89A2.8 2.8 0 0 1 47.08 6.5h5.85a2.8 2.8 0 0 1 2.76 2.32l1.21 6.89a2.5 2.5 0 0 0 1.81 2 33.3 33.3 0 0 1 8 3.31 2.5 2.5 0 0 0 2.68-0.12l5.73-4a2.8 2.8 0 0 1 3.59 0.31l4.13 4.13a2.8 2.8 0 0 1 0.31 3.59l-4 5.73A2.5 2.5 0 0 0 79 33.31a33.23 33.23 0 0 1 3.31 8 2.5 2.5 0 0 0 2 1.81l6.89 1.21a2.8 2.8 0 0 1 2.32 2.76Z" fill="#fbfbfb" data-fill-palette-color="quaternary"></path><path d="M55.68 27.73a6.56 6.56 0 0 0-11.37 0L27.08 57.58a6.56 6.56 0 0 0 5.68 9.84H67.23a6.56 6.56 0 0 0 5.68-9.84Zm12.9 33.91a1.53 1.53 0 0 1-1.35 0.78H32.77a1.56 1.56 0 0 1-1.35-2.34L48.65 30.23a1.56 1.56 0 0 1 2.71 0L68.58 60.08A1.54 1.54 0 0 1 68.58 61.64Z" fill="#fbfbfb" data-fill-palette-color="quaternary"></path><path d="M50 37.9a2.5 2.5 0 0 0-2.5 2.5v8.73a2.5 2.5 0 0 0 5 0V40.4A2.5 2.5 0 0 0 50 37.9Z" fill="#fbfbfb" data-fill-palette-color="quaternary"></path><path d="M50 54.55a2.5 2.5 0 0 0-2.5 2.5v0.14a2.5 2.5 0 0 0 5 0v-0.14A2.5 2.5 0 0 0 50 54.55Z" fill="#fbfbfb" data-fill-palette-color="quaternary"></path></svg></g></svg></g><g></g></svg></g></svg></g></svg></g></svg></g><defs></defs></svg><rect width="512" height="320" fill="none" stroke="none" visibility="hidden"></rect></g></svg></g></svg>